<mxfile host="app.diagrams.net" agent="Mozilla/5.0 (Windows NT 10.0; Win64; x64) AppleWebKit/537.36 (KHTML, like Gecko) Chrome/129.0.0.0 Safari/537.36" version="24.7.17">
  <diagram name="Page-1" id="gEXk13e52gYMFTKqYRuf">
    <mxGraphModel dx="988" dy="496" grid="1" gridSize="10" guides="1" tooltips="1" connect="1" arrows="1" fold="1" page="1" pageScale="1" pageWidth="827" pageHeight="1169" math="0" shadow="0">
      <root>
        <mxCell id="0" />
        <mxCell id="1" parent="0" />
        <mxCell id="_A11XeGENC8A45d-o1aq-5" value="&lt;p align=&quot;center&quot; class=&quot;MsoTitle&quot;&gt;Mes Meilleurs Menus&lt;/p&gt;" style="rounded=0;whiteSpace=wrap;html=1;" parent="1" vertex="1">
          <mxGeometry x="350" y="290" width="120" height="60" as="geometry" />
        </mxCell>
        <mxCell id="_A11XeGENC8A45d-o1aq-7" style="edgeStyle=orthogonalEdgeStyle;rounded=0;orthogonalLoop=1;jettySize=auto;html=1;" parent="1" source="_A11XeGENC8A45d-o1aq-6" target="_A11XeGENC8A45d-o1aq-5" edge="1">
          <mxGeometry relative="1" as="geometry" />
        </mxCell>
        <mxCell id="_A11XeGENC8A45d-o1aq-10" value="Commande" style="edgeLabel;html=1;align=center;verticalAlign=middle;resizable=0;points=[];" parent="_A11XeGENC8A45d-o1aq-7" vertex="1" connectable="0">
          <mxGeometry x="-0.2677" y="-3" relative="1" as="geometry">
            <mxPoint y="-13" as="offset" />
          </mxGeometry>
        </mxCell>
        <mxCell id="_A11XeGENC8A45d-o1aq-6" value="Utilisateur" style="shape=umlActor;verticalLabelPosition=bottom;verticalAlign=top;html=1;outlineConnect=0;" parent="1" vertex="1">
          <mxGeometry x="190" y="290" width="30" height="60" as="geometry" />
        </mxCell>
        <mxCell id="_A11XeGENC8A45d-o1aq-9" style="edgeStyle=orthogonalEdgeStyle;rounded=0;orthogonalLoop=1;jettySize=auto;html=1;endArrow=none;endFill=0;startArrow=classic;startFill=1;" parent="1" edge="1">
          <mxGeometry relative="1" as="geometry">
            <mxPoint x="221" y="340" as="sourcePoint" />
            <mxPoint x="351" y="340" as="targetPoint" />
          </mxGeometry>
        </mxCell>
        <mxCell id="_A11XeGENC8A45d-o1aq-11" value="Info Menu" style="edgeLabel;html=1;align=center;verticalAlign=middle;resizable=0;points=[];" parent="_A11XeGENC8A45d-o1aq-9" vertex="1" connectable="0">
          <mxGeometry x="-0.0985" y="4" relative="1" as="geometry">
            <mxPoint x="-9" y="14" as="offset" />
          </mxGeometry>
        </mxCell>
        <mxCell id="_A11XeGENC8A45d-o1aq-13" value="Administrateur" style="shape=umlActor;verticalLabelPosition=bottom;verticalAlign=top;html=1;outlineConnect=0;" parent="1" vertex="1">
          <mxGeometry x="560" y="290" width="30" height="60" as="geometry" />
        </mxCell>
        <mxCell id="_A11XeGENC8A45d-o1aq-18" style="edgeStyle=orthogonalEdgeStyle;rounded=0;orthogonalLoop=1;jettySize=auto;html=1;endArrow=none;endFill=0;startArrow=classic;startFill=1;" parent="1" edge="1">
          <mxGeometry relative="1" as="geometry">
            <mxPoint x="470" y="319.5" as="sourcePoint" />
            <mxPoint x="560" y="319.5" as="targetPoint" />
          </mxGeometry>
        </mxCell>
        <mxCell id="_A11XeGENC8A45d-o1aq-19" value="Gestion" style="edgeLabel;html=1;align=center;verticalAlign=middle;resizable=0;points=[];" parent="_A11XeGENC8A45d-o1aq-18" vertex="1" connectable="0">
          <mxGeometry x="-0.4756" y="2" relative="1" as="geometry">
            <mxPoint x="16" y="12" as="offset" />
          </mxGeometry>
        </mxCell>
        <mxCell id="ihiprLWUitJAoRI_zFgP-2" value="Twilio" style="shape=umlActor;verticalLabelPosition=bottom;verticalAlign=top;html=1;outlineConnect=0;" parent="1" vertex="1">
          <mxGeometry x="399" y="420" width="30" height="60" as="geometry" />
        </mxCell>
        <mxCell id="ihiprLWUitJAoRI_zFgP-3" style="edgeStyle=orthogonalEdgeStyle;rounded=0;orthogonalLoop=1;jettySize=auto;html=1;entryX=0;entryY=0.3333333333333333;entryDx=0;entryDy=0;entryPerimeter=0;exitX=0.25;exitY=1;exitDx=0;exitDy=0;" parent="1" source="_A11XeGENC8A45d-o1aq-5" target="ihiprLWUitJAoRI_zFgP-2" edge="1">
          <mxGeometry relative="1" as="geometry" />
        </mxCell>
        <mxCell id="ihiprLWUitJAoRI_zFgP-4" value="Mail Ã  envoyer" style="edgeLabel;html=1;align=center;verticalAlign=middle;resizable=0;points=[];" parent="ihiprLWUitJAoRI_zFgP-3" vertex="1" connectable="0">
          <mxGeometry x="-0.0629" relative="1" as="geometry">
            <mxPoint x="-32" y="-15" as="offset" />
          </mxGeometry>
        </mxCell>
        <mxCell id="ihiprLWUitJAoRI_zFgP-5" style="edgeStyle=orthogonalEdgeStyle;rounded=0;orthogonalLoop=1;jettySize=auto;html=1;entryX=0.83;entryY=0.99;entryDx=0;entryDy=0;entryPerimeter=0;exitX=1;exitY=0.3333333333333333;exitDx=0;exitDy=0;exitPerimeter=0;" parent="1" source="ihiprLWUitJAoRI_zFgP-2" target="_A11XeGENC8A45d-o1aq-5" edge="1">
          <mxGeometry relative="1" as="geometry" />
        </mxCell>
        <mxCell id="ihiprLWUitJAoRI_zFgP-6" value="Retour envoie" style="edgeLabel;html=1;align=center;verticalAlign=middle;resizable=0;points=[];" parent="ihiprLWUitJAoRI_zFgP-5" vertex="1" connectable="0">
          <mxGeometry x="0.2266" y="-4" relative="1" as="geometry">
            <mxPoint as="offset" />
          </mxGeometry>
        </mxCell>
        <mxCell id="kuO_aaSk5b-0ISziX135-1" value="Nutritionniste" style="shape=umlActor;verticalLabelPosition=bottom;verticalAlign=top;html=1;outlineConnect=0;" vertex="1" parent="1">
          <mxGeometry x="490" y="160" width="30" height="60" as="geometry" />
        </mxCell>
        <mxCell id="kuO_aaSk5b-0ISziX135-2" style="edgeStyle=orthogonalEdgeStyle;rounded=0;orthogonalLoop=1;jettySize=auto;html=1;endArrow=none;endFill=0;startArrow=classic;startFill=1;exitX=0.5;exitY=0;exitDx=0;exitDy=0;entryX=0;entryY=0.3333333333333333;entryDx=0;entryDy=0;entryPerimeter=0;" edge="1" parent="1" source="_A11XeGENC8A45d-o1aq-5" target="kuO_aaSk5b-0ISziX135-1">
          <mxGeometry relative="1" as="geometry">
            <mxPoint x="340" y="250" as="sourcePoint" />
            <mxPoint x="435.0000000000001" y="180" as="targetPoint" />
          </mxGeometry>
        </mxCell>
        <mxCell id="kuO_aaSk5b-0ISziX135-3" value="Commande" style="edgeLabel;html=1;align=center;verticalAlign=middle;resizable=0;points=[];" vertex="1" connectable="0" parent="kuO_aaSk5b-0ISziX135-2">
          <mxGeometry x="-0.4756" y="2" relative="1" as="geometry">
            <mxPoint x="-18" y="-10" as="offset" />
          </mxGeometry>
        </mxCell>
        <mxCell id="kuO_aaSk5b-0ISziX135-5" style="edgeStyle=orthogonalEdgeStyle;rounded=0;orthogonalLoop=1;jettySize=auto;html=1;endArrow=none;endFill=0;startArrow=classic;startFill=1;entryX=0.651;entryY=-0.02;entryDx=0;entryDy=0;entryPerimeter=0;" edge="1" parent="1" source="kuO_aaSk5b-0ISziX135-1" target="_A11XeGENC8A45d-o1aq-5">
          <mxGeometry relative="1" as="geometry">
            <mxPoint x="414" y="240" as="sourcePoint" />
            <mxPoint x="544" y="240" as="targetPoint" />
          </mxGeometry>
        </mxCell>
        <mxCell id="kuO_aaSk5b-0ISziX135-6" value="Info Menu" style="edgeLabel;html=1;align=center;verticalAlign=middle;resizable=0;points=[];" vertex="1" connectable="0" parent="kuO_aaSk5b-0ISziX135-5">
          <mxGeometry x="-0.0985" y="4" relative="1" as="geometry">
            <mxPoint x="8" y="50" as="offset" />
          </mxGeometry>
        </mxCell>
        <mxCell id="kuO_aaSk5b-0ISziX135-9" style="edgeStyle=orthogonalEdgeStyle;rounded=0;orthogonalLoop=1;jettySize=auto;html=1;endArrow=none;endFill=0;startArrow=classic;startFill=1;exitX=0;exitY=0.3333333333333333;exitDx=0;exitDy=0;exitPerimeter=0;entryX=1.006;entryY=0.324;entryDx=0;entryDy=0;entryPerimeter=0;" edge="1" parent="1" source="_A11XeGENC8A45d-o1aq-13" target="_A11XeGENC8A45d-o1aq-5">
          <mxGeometry relative="1" as="geometry">
            <mxPoint x="500" y="410" as="sourcePoint" />
            <mxPoint x="630" y="410" as="targetPoint" />
          </mxGeometry>
        </mxCell>
        <mxCell id="kuO_aaSk5b-0ISziX135-10" value="Info Menu" style="edgeLabel;html=1;align=center;verticalAlign=middle;resizable=0;points=[];" vertex="1" connectable="0" parent="kuO_aaSk5b-0ISziX135-9">
          <mxGeometry x="-0.0985" y="4" relative="1" as="geometry">
            <mxPoint x="-9" y="14" as="offset" />
          </mxGeometry>
        </mxCell>
        <mxCell id="kuO_aaSk5b-0ISziX135-11" value="Info site" style="edgeLabel;html=1;align=center;verticalAlign=middle;resizable=0;points=[];" vertex="1" connectable="0" parent="1">
          <mxGeometry x="505.00444444444435" y="300.0000000000001" as="geometry">
            <mxPoint x="2" y="-2" as="offset" />
          </mxGeometry>
        </mxCell>
      </root>
    </mxGraphModel>
  </diagram>
</mxfile>
